<svg xmlns="http://www.w3.org/2000/svg" viewBox="0 0 256 256" role="img" aria-label="My Cineverse logo">
  <defs>
    <linearGradient id="bg" x1="0" x2="1" y1="0" y2="1">
      <stop offset="0" stop-color="#10192f"/>
      <stop offset="0.55" stop-color="#1b2850"/>
      <stop offset="1" stop-color="#050816"/>
    </linearGradient>
    <linearGradient id="accent" x1="0" x2="1" y1="0" y2="1">
      <stop offset="0" stop-color="#f8b84e"/>
      <stop offset="1" stop-color="#6dd6ff"/>
    </linearGradient>
    <linearGradient id="orbit" x1="0" x2="1" y1="0" y2="1">
      <stop offset="0" stop-color="#ffffff"/>
      <stop offset="1" stop-color="#9fb5ff"/>
    </linearGradient>
  </defs>

  <rect x="14" y="14" width="228" height="228" rx="54" fill="url(#bg)"/>

  <circle cx="128" cy="128" r="70" fill="none" stroke="url(#orbit)" stroke-opacity="0.22" stroke-width="4"/>
  <ellipse cx="128" cy="128" rx="92" ry="46" fill="none" stroke="url(#accent)" stroke-opacity="0.75" stroke-width="5" transform="rotate(-18 128 128)"/>

  <g transform="translate(68 72)">
    <rect x="0" y="0" width="120" height="112" rx="30" fill="#0d1426" stroke="url(#accent)" stroke-width="4"/>
    <rect x="14" y="16" width="92" height="80" rx="18" fill="#111a33"/>
    <g fill="#f4f7fb" opacity="0.9">
      <circle cx="26" cy="28" r="4"/>
      <circle cx="26" cy="56" r="4"/>
      <circle cx="26" cy="84" r="4"/>
      <circle cx="94" cy="28" r="4"/>
      <circle cx="94" cy="56" r="4"/>
      <circle cx="94" cy="84" r="4"/>
    </g>
    <path d="M50 30l34 26-34 26z" fill="url(#accent)"/>
  </g>

  <path d="M176 72c10 6 16 16 18 28" fill="none" stroke="#6dd6ff" stroke-width="4" stroke-linecap="round" opacity="0.8"/>
  <path d="M180 186c-14 8-29 12-46 12-14 0-28-3-40-9" fill="none" stroke="#f8b84e" stroke-width="4" stroke-linecap="round" opacity="0.85"/>
  <circle cx="186" cy="78" r="7" fill="#6dd6ff"/>
  <circle cx="76" cy="182" r="5" fill="#f8b84e"/>

  <path d="M128 188c12 0 22 10 22 22h-44c0-12 10-22 22-22z" fill="#6dd6ff" opacity="0.9"/>
</svg>
